<?xml version="1.0" encoding="UTF-8" standalone="no"?>
<!-- Created with Inkscape (http://www.inkscape.org/) -->

<svg
   width="425"
   height="187.70354"
   viewBox="0 0 424.99999 187.70354"
   version="1.1"
   id="svg1"
   inkscape:version="1.4 (86a8ad7, 2024-10-11)"
   sodipodi:docname="test.svg"
   xmlns:inkscape="http://www.inkscape.org/namespaces/inkscape"
   xmlns:sodipodi="http://sodipodi.sourceforge.net/DTD/sodipodi-0.dtd"
   xmlns="http://www.w3.org/2000/svg"
   xmlns:svg="http://www.w3.org/2000/svg">
  <sodipodi:namedview
     id="namedview1"
     pagecolor="#ffffff"
     bordercolor="#000000"
     borderopacity="0.25"
     inkscape:showpageshadow="2"
     inkscape:pageopacity="0.0"
     inkscape:pagecheckerboard="0"
     inkscape:deskcolor="#d1d1d1"
     inkscape:document-units="px"
     inkscape:zoom="1.4142136"
     inkscape:cx="198.34345"
     inkscape:cy="39.59798"
     inkscape:window-width="1440"
     inkscape:window-height="878"
     inkscape:window-x="-6"
     inkscape:window-y="-6"
     inkscape:window-maximized="1"
     inkscape:current-layer="layer1" />
  <defs
     id="defs1" />
  <g
     inkscape:label="Layer 1"
     inkscape:groupmode="layer"
     id="layer1"
     transform="translate(-49.263184)">
    <path
       id="path30-5-3-8-6"
       style="fill:#fe6b6b;fill-opacity:1;stroke:#00ffff;stroke-width:0;stroke-linejoin:round;stroke-dasharray:none;stroke-opacity:1"
       d="m 194.80935,108.748 -3.09335,7.46674 c 4.06253,1.68277 5.99177,6.34027 4.30903,10.40281 -1.68277,4.06252 -6.34028,5.99177 -10.40281,4.30903 l -3.00923,7.26558 a 70.772937,70.772945 0 0 0 27.04645,5.47717 70.772937,70.772945 0 0 0 49.91698,-20.85682 l -22.46239,-22.46239 a 38.925155,38.925155 0 0 1 -27.45459,11.47147 38.925155,38.925155 0 0 1 -14.85009,-3.07359 z" />
    <path
       id="path42-7-6-9-4"
       style="fill:#59b4cf;fill-opacity:1;stroke:#00ffff;stroke-width:0;stroke-linejoin:round;stroke-dasharray:none;stroke-opacity:1"
       d="m 138.88637,72.896252 a 70.772937,70.772945 0 0 0 43.72662,65.295908 l 3.00923,-7.26558 c 4.06253,1.68274 8.72004,-0.2465 10.40281,-4.30903 1.68274,-4.06254 -0.2465,-8.72004 -4.30903,-10.40281 l 3.09335,-7.46674 A 38.925155,38.925155 0 0 1 170.7341,72.896252 h -7.96193 c -2e-5,4.39725 -3.56468,7.96192 -7.96194,7.96194 -4.39725,-2e-5 -7.96192,-3.56469 -7.96194,-7.96194 z" />
    <path
       id="path41-6-1-2-5"
       style="fill:#8fd774;fill-opacity:1;stroke:#00ffff;stroke-width:0;stroke-linejoin:round;stroke-dasharray:none;stroke-opacity:1"
       d="M 182.62763,7.6354589 A 70.772937,70.772945 0 0 0 138.88637,72.896252 h 7.96192 c 2e-5,4.39725 3.56469,7.96192 7.96194,7.96194 4.39726,-2e-5 7.96192,-3.56469 7.96194,-7.96194 h 7.96193 A 38.925155,38.925155 0 0 1 194.8057,37.036461 L 191.716,29.57778 c -4.06252,1.682742 -8.72004,-0.246502 -10.40281,-4.309029 -1.68274,-4.06254 0.24651,-8.720041 4.30903,-10.402811 z" />
    <path
       id="path40-6-8-9-86"
       style="fill:#f9da55;fill-opacity:1;stroke:#00ffff;stroke-width:0;stroke-linejoin:round;stroke-dasharray:none;stroke-opacity:1"
       d="m 182.62763,7.6354589 2.99459,7.2304811 c -4.06252,1.68277 -5.99177,6.340271 -4.30903,10.402811 1.68277,4.062527 6.34029,5.991771 10.40281,4.309029 l 3.0897,7.458681 a 38.925155,38.925155 0 0 1 14.85374,-3.065546 38.925155,38.925155 0 0 1 27.52407,11.401264 l 22.5202,-22.52017 A 70.772937,70.772945 0 0 0 209.65944,2.1231899 70.772937,70.772945 0 0 0 182.62763,7.6354589 Z" />
    <path
       id="path56-59-1"
       style="fill:#d0993c;fill-opacity:1;stroke:#00ffff;stroke-width:0;stroke-linejoin:round;stroke-dasharray:none;stroke-opacity:1"
       d="m 248.44363,34.112108 a 54.84908,54.84908 0 0 0 -38.78419,-16.065034 54.84908,54.84908 0 0 0 -28.05512,7.834657 c 1.87945,3.637039 6.26049,5.291273 10.1117,3.696063 l 3.08968,7.458697 a 38.925155,38.925155 0 0 1 14.85374,-3.065547 38.925155,38.925155 0 0 1 27.52407,11.401246 z" />
    <path
       id="path57-4-5"
       style="fill:#64a56a;fill-opacity:1;stroke:#00ffff;stroke-width:0;stroke-linejoin:round;stroke-dasharray:none;stroke-opacity:1"
       d="m 181.60432,25.881731 a 54.84908,54.84908 0 0 0 -26.79409,47.014551 54.84908,54.84908 0 0 0 0.58664,7.93268 c 4.12231,-0.30134 7.37528,-3.73346 7.3753,-7.93268 h 7.96193 a 38.925155,38.925155 0 0 1 24.0716,-35.859791 l -3.08968,-7.458697 c -3.85121,1.59521 -8.23225,-0.05902 -10.1117,-3.696063 z" />
    <path
       id="path59-5-5"
       style="fill:#0d809f;fill-opacity:1;stroke:#00ffff;stroke-width:0;stroke-linejoin:round;stroke-dasharray:none;stroke-opacity:1"
       d="m 155.39687,80.828962 a 54.84908,54.84908 0 0 0 40.85931,45.140528 c 1.23694,-3.89828 -0.69192,-8.16072 -4.54016,-9.75472 l 3.09333,-7.46674 A 38.925155,38.925155 0 0 1 170.7341,72.896282 h -7.96193 c -2e-5,4.19922 -3.25299,7.63134 -7.3753,7.93268 z" />
    <path
       id="path61-0-1"
       style="fill:#ba5b59;fill-opacity:1;stroke:#00ffff;stroke-width:0;stroke-linejoin:round;stroke-dasharray:none;stroke-opacity:1"
       d="m 196.25618,125.96949 a 54.84908,54.84908 0 0 0 13.40326,1.776 54.84908,54.84908 0 0 0 38.68543,-16.16453 l -11.23084,-11.23083 a 38.925155,38.925155 0 0 1 -27.45459,11.47149 38.925155,38.925155 0 0 1 -14.85009,-3.07359 l -3.09333,7.46674 c 3.84824,1.594 5.7771,5.85644 4.54016,9.75472 z" />
    <path
       id="path52-5-96"
       style="fill:none;fill-opacity:1;stroke:#1f2328;stroke-width:4.24638;stroke-linejoin:round;stroke-dasharray:none;stroke-opacity:1"
       d="m 194.80935,108.748 -3.09335,7.46674 c 4.06253,1.68277 5.99177,6.34027 4.30903,10.40281 -1.68277,4.06252 -6.34028,5.99177 -10.40281,4.30903 l -3.00923,7.26558 a 70.772937,70.772945 0 0 0 27.04645,5.47717 70.772937,70.772945 0 0 0 49.91698,-20.85682 l -22.46239,-22.46239 a 38.925155,38.925155 0 0 1 -27.45459,11.47147 38.925155,38.925155 0 0 1 -14.85009,-3.07359 z" />
    <path
       id="path53-8-4"
       style="fill:none;fill-opacity:1;stroke:#1f2328;stroke-width:4.24638;stroke-linejoin:round;stroke-dasharray:none;stroke-opacity:1"
       d="m 138.88637,72.896252 a 70.772937,70.772945 0 0 0 43.72662,65.295908 l 3.00923,-7.26558 c 4.06253,1.68274 8.72004,-0.2465 10.40281,-4.30903 1.68274,-4.06254 -0.2465,-8.72004 -4.30903,-10.40281 l 3.09335,-7.46674 A 38.925155,38.925155 0 0 1 170.7341,72.896252 h -7.96193 c -2e-5,4.39725 -3.56468,7.96192 -7.96194,7.96194 -4.39725,-2e-5 -7.96192,-3.56469 -7.96194,-7.96194 z" />
    <path
       id="path54-80-5"
       style="fill:none;fill-opacity:1;stroke:#1f2328;stroke-width:4.24638;stroke-linejoin:round;stroke-dasharray:none;stroke-opacity:1"
       d="M 182.62763,7.6354589 A 70.772937,70.772945 0 0 0 138.88637,72.896252 h 7.96192 c 2e-5,4.39725 3.56469,7.96192 7.96194,7.96194 4.39726,-2e-5 7.96192,-3.56469 7.96194,-7.96194 h 7.96193 A 38.925155,38.925155 0 0 1 194.8057,37.036461 L 191.716,29.57778 c -4.06252,1.682742 -8.72004,-0.246502 -10.40281,-4.309029 -1.68274,-4.06254 0.24651,-8.720041 4.30903,-10.402811 z" />
    <path
       id="path55-13-4"
       style="fill:none;fill-opacity:1;stroke:#1f2328;stroke-width:4.24638;stroke-linejoin:round;stroke-dasharray:none;stroke-opacity:1"
       d="m 182.62763,7.6354589 2.99459,7.2304811 c -4.06252,1.68277 -5.99177,6.340271 -4.30903,10.402811 1.68277,4.062527 6.34029,5.991771 10.40281,4.309029 l 3.0897,7.458681 a 38.925155,38.925155 0 0 1 14.85374,-3.065546 38.925155,38.925155 0 0 1 27.52407,11.401264 l 22.5202,-22.52017 A 70.772937,70.772945 0 0 0 209.65944,2.1231899 70.772937,70.772945 0 0 0 182.62763,7.6354589 Z" />
    <path
       id="path30-5-3-6-22-2"
       style="fill:#fe6b6b;fill-opacity:1;stroke:#00ffff;stroke-width:0;stroke-linejoin:round;stroke-dasharray:none;stroke-opacity:1"
       d="m 319.74573,108.748 -3.09333,7.46674 c 4.06253,1.68277 5.99177,6.34027 4.30903,10.40281 -1.68277,4.06252 -6.34027,5.99177 -10.40281,4.30903 l -3.00923,7.26558 a 70.772937,70.772945 0 0 0 27.04643,5.47717 70.772937,70.772945 0 0 0 49.91698,-20.85682 l -22.46239,-22.46239 a 38.925155,38.925155 0 0 1 -27.45459,11.47147 38.925155,38.925155 0 0 1 -14.85009,-3.07359 z" />
    <path
       id="path42-7-6-2-2-5"
       style="fill:#59b4cf;fill-opacity:1;stroke:#00ffff;stroke-width:0;stroke-linejoin:round;stroke-dasharray:none;stroke-opacity:1"
       d="m 263.82276,72.896252 a 70.772937,70.772945 0 0 0 43.72662,65.295908 l 3.00922,-7.26558 c 4.06255,1.68274 8.72005,-0.2465 10.40282,-4.30903 1.68274,-4.06254 -0.2465,-8.72004 -4.30903,-10.40281 l 3.09334,-7.46674 A 38.925155,38.925155 0 0 1 295.67048,72.896252 h -7.96193 c -2e-5,4.39725 -3.56468,7.96192 -7.96195,7.96194 -4.39726,-2e-5 -7.96192,-3.56469 -7.96194,-7.96194 z" />
    <path
       id="path41-6-1-9-70-3"
       style="fill:#8fd774;fill-opacity:1;stroke:#00ffff;stroke-width:0;stroke-linejoin:round;stroke-dasharray:none;stroke-opacity:1"
       d="M 307.56402,7.6354589 A 70.772937,70.772945 0 0 0 263.82274,72.896252 h 7.96194 c 1e-5,4.39725 3.56468,7.96192 7.96193,7.96194 4.39727,-2e-5 7.96194,-3.56469 7.96195,-7.96194 h 7.96192 A 38.925155,38.925155 0 0 1 319.7421,37.036461 l -3.0897,-7.458681 c -4.06254,1.682742 -8.72004,-0.246502 -10.40283,-4.309029 -1.68272,-4.06254 0.24651,-8.720041 4.30905,-10.402811 z" />
    <path
       id="path40-6-8-1-3-2"
       style="fill:#f9da55;fill-opacity:1;stroke:#00ffff;stroke-width:0;stroke-linejoin:round;stroke-dasharray:none;stroke-opacity:1"
       d="m 307.56402,7.6354589 2.9946,7.2304811 c -4.06254,1.68277 -5.99177,6.340271 -4.30905,10.402811 1.68279,4.062527 6.34029,5.991771 10.40283,4.309029 l 3.0897,7.458681 a 38.925155,38.925155 0 0 1 14.85374,-3.065546 38.925155,38.925155 0 0 1 27.52407,11.401264 l 22.52018,-22.52017 A 70.772937,70.772945 0 0 0 334.59585,2.1231899 70.772937,70.772945 0 0 0 307.56402,7.6354589 Z" />
    <path
       id="path56-5-1-6"
       style="fill:#d0993c;fill-opacity:1;stroke:#00ffff;stroke-width:0;stroke-linejoin:round;stroke-dasharray:none;stroke-opacity:1"
       d="m 373.38,34.112108 a 54.84908,54.84908 0 0 0 -38.78415,-16.065034 54.84908,54.84908 0 0 0 -28.05514,7.834657 c 1.87946,3.637039 6.26049,5.291273 10.1117,3.696063 l 3.08969,7.458697 a 38.925155,38.925155 0 0 1 14.85375,-3.065547 38.925155,38.925155 0 0 1 27.52408,11.401246 z" />
    <path
       id="path57-0-3-8"
       style="fill:#64a56a;fill-opacity:1;stroke:#00ffff;stroke-width:0;stroke-linejoin:round;stroke-dasharray:none;stroke-opacity:1"
       d="m 306.54069,25.881731 a 54.84908,54.84908 0 0 0 -26.79408,47.014551 54.84908,54.84908 0 0 0 0.58664,7.93268 c 4.12232,-0.30134 7.3753,-3.73346 7.37531,-7.93268 h 7.96192 a 38.925155,38.925155 0 0 1 24.07159,-35.859791 l -3.08967,-7.458697 c -3.85121,1.59521 -8.23225,-0.05902 -10.11171,-3.696063 z" />
    <path
       id="path59-3-3-2"
       style="fill:#0d809f;fill-opacity:1;stroke:#00ffff;stroke-width:0;stroke-linejoin:round;stroke-dasharray:none;stroke-opacity:1"
       d="m 280.33325,80.828962 a 54.84908,54.84908 0 0 0 40.85931,45.140528 c 1.23696,-3.89828 -0.69193,-8.16072 -4.54017,-9.75472 l 3.09334,-7.46674 A 38.925155,38.925155 0 0 1 295.67048,72.896282 h -7.96193 c -2e-5,4.19922 -3.253,7.63134 -7.3753,7.93268 z" />
    <path
       id="path61-6-7-6"
       style="fill:#ba5b59;fill-opacity:1;stroke:#00ffff;stroke-width:0;stroke-linejoin:round;stroke-dasharray:none;stroke-opacity:1"
       d="m 321.19256,125.96949 a 54.84908,54.84908 0 0 0 13.40326,1.776 54.84908,54.84908 0 0 0 38.68543,-16.16453 l -11.23084,-11.23083 a 38.925155,38.925155 0 0 1 -27.45459,11.47149 38.925155,38.925155 0 0 1 -14.85009,-3.07359 l -3.09333,7.46674 c 3.84823,1.594 5.7771,5.85644 4.54016,9.75472 z" />
    <path
       id="path52-4-0-6"
       style="fill:none;fill-opacity:1;stroke:#1f2328;stroke-width:4.24638;stroke-linejoin:round;stroke-dasharray:none;stroke-opacity:1"
       d="m 319.74573,108.748 -3.09333,7.46674 c 4.06253,1.68277 5.99177,6.34027 4.30903,10.40281 -1.68277,4.06252 -6.34027,5.99177 -10.40281,4.30903 l -3.00923,7.26558 a 70.772937,70.772945 0 0 0 27.04643,5.47717 70.772937,70.772945 0 0 0 49.91698,-20.85682 l -22.46239,-22.46239 a 38.925155,38.925155 0 0 1 -27.45459,11.47147 38.925155,38.925155 0 0 1 -14.85009,-3.07359 z" />
    <path
       id="path53-9-95-3"
       style="fill:none;fill-opacity:1;stroke:#1f2328;stroke-width:4.24638;stroke-linejoin:round;stroke-dasharray:none;stroke-opacity:1"
       d="m 263.82276,72.896252 a 70.772937,70.772945 0 0 0 43.72662,65.295908 l 3.00922,-7.26558 c 4.06255,1.68274 8.72005,-0.2465 10.40282,-4.30903 1.68274,-4.06254 -0.2465,-8.72004 -4.30903,-10.40281 l 3.09334,-7.46674 A 38.925155,38.925155 0 0 1 295.67048,72.896252 h -7.96193 c -2e-5,4.39725 -3.56468,7.96192 -7.96195,7.96194 -4.39726,-2e-5 -7.96192,-3.56469 -7.96194,-7.96194 z" />
    <path
       id="path54-2-5-9"
       style="fill:none;fill-opacity:1;stroke:#1f2328;stroke-width:4.24638;stroke-linejoin:round;stroke-dasharray:none;stroke-opacity:1"
       d="M 307.56402,7.6354589 A 70.772937,70.772945 0 0 0 263.82274,72.896252 h 7.96194 c 1e-5,4.39725 3.56468,7.96192 7.96193,7.96194 4.39727,-2e-5 7.96194,-3.56469 7.96195,-7.96194 h 7.96192 A 38.925155,38.925155 0 0 1 319.7421,37.036461 l -3.0897,-7.458681 c -4.06254,1.682742 -8.72004,-0.246502 -10.40283,-4.309029 -1.68272,-4.06254 0.24651,-8.720041 4.30905,-10.402811 z" />
    <path
       id="path55-9-8-4"
       style="fill:none;fill-opacity:1;stroke:#1f2328;stroke-width:4.24638;stroke-linejoin:round;stroke-dasharray:none;stroke-opacity:1"
       d="m 307.56402,7.6354589 2.9946,7.2304811 c -4.06254,1.68277 -5.99177,6.340271 -4.30905,10.402811 1.68279,4.062527 6.34029,5.991771 10.40283,4.309029 l 3.0897,7.458681 a 38.925155,38.925155 0 0 1 14.85374,-3.065546 38.925155,38.925155 0 0 1 27.52407,11.401264 l 22.52018,-22.52017 A 70.772937,70.772945 0 0 0 334.59585,2.1231899 70.772937,70.772945 0 0 0 307.56402,7.6354589 Z" />
    <text
       xml:space="preserve"
       style="font-style:normal;font-variant:normal;font-weight:600;font-stretch:normal;font-size:32px;font-family:'Segoe UI';-inkscape-font-specification:'-apple-system, BlinkMacSystemFont, \'Segoe UI\', Roboto, Helvetica, Arial, sans-serif, \'Apple Color Emoji\', \'Segoe UI Emoji\', \'Segoe UI Symbol\'';font-variant-ligatures:normal;font-variant-caps:normal;font-variant-numeric:normal;font-variant-east-asian:normal;text-align:start;writing-mode:lr-tb;direction:ltr;text-anchor:middle;vector-effect:non-scaling-stroke;fill:#1f2328;stroke:none;stroke-linecap:round;stroke-linejoin:round;-inkscape-stroke:hairline"
       x="261.63037"
       y="187.32854"
       id="text1"><tspan
         sodipodi:role="line"
         id="tspan1"
         x="261.63037"
         y="187.32854">Convenient Containers</tspan></text>
  </g>
</svg>
